<svg width="512" height="512" viewBox="0 0 512 512" fill="none" xmlns="http://www.w3.org/2000/svg">
  <defs>
    <linearGradient id="bg" x1="72" y1="56" x2="448" y2="456" gradientUnits="userSpaceOnUse">
      <stop stop-color="#101A33"/>
      <stop offset="1" stop-color="#0B1224"/>
    </linearGradient>
    <linearGradient id="flare" x1="136" y1="160" x2="392" y2="336" gradientUnits="userSpaceOnUse">
      <stop stop-color="#FFB24A"/>
      <stop offset="1" stop-color="#F38020"/>
    </linearGradient>
    <linearGradient id="panel" x1="152" y1="176" x2="360" y2="336" gradientUnits="userSpaceOnUse">
      <stop stop-color="#91B4FF"/>
      <stop offset="1" stop-color="#4B7BFF"/>
    </linearGradient>
  </defs>
  <rect x="40" y="40" width="432" height="432" rx="104" fill="url(#bg)"/>
  <rect x="40" y="40" width="432" height="432" rx="104" stroke="#243254" stroke-width="8"/>
  <path d="M171 166C183 135 213 113 248 113C287 113 320 141 329 179C359 181 383 206 383 237C383 270 356 297 323 297H187C155 297 129 271 129 239C129 209 153 184 183 181C188 175 195 170 203 166H171Z" fill="url(#flare)"/>
  <rect x="152" y="176" width="208" height="160" rx="28" fill="url(#panel)"/>
  <rect x="152" y="176" width="208" height="160" rx="28" stroke="#D9E5FF" stroke-width="4"/>
  <path d="M182 224H330" stroke="#0F1B37" stroke-width="12" stroke-linecap="round"/>
  <path d="M182 256H330" stroke="#0F1B37" stroke-width="12" stroke-linecap="round" opacity="0.75"/>
  <path d="M182 288H286" stroke="#0F1B37" stroke-width="12" stroke-linecap="round" opacity="0.55"/>
  <rect x="166" y="352" width="180" height="20" rx="10" fill="#F38020" opacity="0.9"/>
  <text x="256" y="420" text-anchor="middle" fill="#E8EEFF" font-family="Segoe UI, Arial, sans-serif" font-size="60" font-weight="700">CTP</text>
</svg>
