<svg width="1600" height="1000" viewBox="0 0 1600 1000" fill="none" xmlns="http://www.w3.org/2000/svg">
  <rect width="1600" height="1000" fill="#06101E"/>
  <rect x="36" y="36" width="1528" height="928" rx="34" fill="#0B1426" stroke="#23324A" stroke-width="4"/>
  <rect x="36" y="36" width="256" height="928" rx="34" fill="#0F1A30"/>
  <text x="92" y="112" fill="#F7FAFF" font-family="Segoe UI, Arial, sans-serif" font-size="38" font-weight="700">CTP</text>
  <rect x="76" y="146" width="176" height="56" rx="16" fill="#172947"/>
  <text x="104" y="182" fill="#F2F6FF" font-family="Segoe UI, Arial, sans-serif" font-size="22" font-weight="700">Dashboard</text>
  <text x="332" y="108" fill="#F7FAFF" font-family="Segoe UI, Arial, sans-serif" font-size="44" font-weight="700">Status Overview</text>
  <text x="332" y="148" fill="#8EA3CA" font-family="Segoe UI, Arial, sans-serif" font-size="22">Observe live tunnel connectivity, drift, DNS correctness, and public health.</text>
  <rect x="332" y="190" width="276" height="150" rx="24" fill="#0F1B34" stroke="#294064" stroke-width="3"/>
  <rect x="624" y="190" width="276" height="150" rx="24" fill="#0F1B34" stroke="#294064" stroke-width="3"/>
  <rect x="916" y="190" width="276" height="150" rx="24" fill="#0F1B34" stroke="#294064" stroke-width="3"/>
  <rect x="1208" y="190" width="320" height="150" rx="24" fill="#0F1B34" stroke="#294064" stroke-width="3"/>
  <text x="364" y="240" fill="#8EA3CA" font-family="Segoe UI, Arial, sans-serif" font-size="18">Total Connectors</text>
  <text x="364" y="298" fill="#F7FAFF" font-family="Segoe UI, Arial, sans-serif" font-size="44" font-weight="700">2</text>
  <text x="656" y="240" fill="#8EA3CA" font-family="Segoe UI, Arial, sans-serif" font-size="18">Online Bindings</text>
  <text x="656" y="298" fill="#F7FAFF" font-family="Segoe UI, Arial, sans-serif" font-size="44" font-weight="700">8</text>
  <text x="948" y="240" fill="#8EA3CA" font-family="Segoe UI, Arial, sans-serif" font-size="18">Ingress Drift</text>
  <text x="948" y="298" fill="#F7FAFF" font-family="Segoe UI, Arial, sans-serif" font-size="34" font-weight="700">In Sync</text>
  <text x="1240" y="240" fill="#8EA3CA" font-family="Segoe UI, Arial, sans-serif" font-size="18">Lifecycle Ownership</text>
  <text x="1240" y="298" fill="#F7FAFF" font-family="Segoe UI, Arial, sans-serif" font-size="30" font-weight="700">External Docker Runtime</text>
  <rect x="332" y="380" width="756" height="510" rx="26" fill="#0F1B34" stroke="#294064" stroke-width="3"/>
  <text x="368" y="428" fill="#F2F6FF" font-family="Segoe UI, Arial, sans-serif" font-size="28" font-weight="700">Tunnel Connectors</text>
  <rect x="368" y="458" width="684" height="58" rx="14" fill="#132542"/>
  <text x="392" y="495" fill="#93A4C4" font-family="Segoe UI, Arial, sans-serif" font-size="18" font-weight="700">TUNNEL</text>
  <text x="690" y="495" fill="#93A4C4" font-family="Segoe UI, Arial, sans-serif" font-size="18" font-weight="700">CONNECTORS</text>
  <text x="890" y="495" fill="#93A4C4" font-family="Segoe UI, Arial, sans-serif" font-size="18" font-weight="700">STATUS</text>
  <rect x="368" y="532" width="684" height="78" rx="16" fill="#101F38"/>
  <rect x="368" y="626" width="684" height="78" rx="16" fill="#101F38"/>
  <text x="392" y="580" fill="#F7FAFF" font-family="Segoe UI, Arial, sans-serif" font-size="22" font-weight="700">primary-tunnel</text>
  <text x="710" y="580" fill="#F7FAFF" font-family="Segoe UI, Arial, sans-serif" font-size="22" font-weight="700">1</text>
  <rect x="872" y="556" width="120" height="32" rx="16" fill="#1D6B49"/>
  <text x="932" y="578" text-anchor="middle" fill="#E6FFF2" font-family="Segoe UI, Arial, sans-serif" font-size="18" font-weight="700">Online</text>
  <text x="392" y="674" fill="#F7FAFF" font-family="Segoe UI, Arial, sans-serif" font-size="22" font-weight="700">home-tunnel</text>
  <text x="710" y="674" fill="#F7FAFF" font-family="Segoe UI, Arial, sans-serif" font-size="22" font-weight="700">1</text>
  <rect x="872" y="650" width="120" height="32" rx="16" fill="#1D6B49"/>
  <text x="932" y="672" text-anchor="middle" fill="#E6FFF2" font-family="Segoe UI, Arial, sans-serif" font-size="18" font-weight="700">Online</text>
  <rect x="1124" y="380" width="404" height="510" rx="26" fill="#0F1B34" stroke="#294064" stroke-width="3"/>
  <text x="1160" y="428" fill="#F2F6FF" font-family="Segoe UI, Arial, sans-serif" font-size="28" font-weight="700">Health Signals</text>
  <rect x="1160" y="462" width="332" height="100" rx="18" fill="#132542"/>
  <rect x="1160" y="582" width="332" height="100" rx="18" fill="#132542"/>
  <rect x="1160" y="702" width="332" height="100" rx="18" fill="#132542"/>
  <text x="1190" y="510" fill="#8EA3CA" font-family="Segoe UI, Arial, sans-serif" font-size="18">Public Reachability</text>
  <text x="1190" y="548" fill="#F7FAFF" font-family="Segoe UI, Arial, sans-serif" font-size="24" font-weight="700">HTTPS checks passing</text>
  <text x="1190" y="630" fill="#8EA3CA" font-family="Segoe UI, Arial, sans-serif" font-size="18">DNS Correctness</text>
  <text x="1190" y="668" fill="#F7FAFF" font-family="Segoe UI, Arial, sans-serif" font-size="24" font-weight="700">CNAMEs point to tunnel</text>
  <text x="1190" y="750" fill="#8EA3CA" font-family="Segoe UI, Arial, sans-serif" font-size="18">Config Drift</text>
  <text x="1190" y="788" fill="#F7FAFF" font-family="Segoe UI, Arial, sans-serif" font-size="24" font-weight="700">Expected rules match remote</text>
</svg>
