<svg width="1600" height="1000" viewBox="0 0 1600 1000" fill="none" xmlns="http://www.w3.org/2000/svg">
  <rect width="1600" height="1000" fill="#06101E"/>
  <rect x="36" y="36" width="1528" height="928" rx="34" fill="#0B1426" stroke="#23324A" stroke-width="4"/>
  <rect x="36" y="36" width="256" height="928" rx="34" fill="#0F1A30"/>
  <text x="92" y="112" fill="#F7FAFF" font-family="Segoe UI, Arial, sans-serif" font-size="38" font-weight="700">CTP</text>
  <text x="92" y="176" fill="#7E93B8" font-family="Segoe UI, Arial, sans-serif" font-size="22">Dashboard</text>
  <text x="92" y="236" fill="#7E93B8" font-family="Segoe UI, Arial, sans-serif" font-size="22">Bindings</text>
  <text x="92" y="296" fill="#7E93B8" font-family="Segoe UI, Arial, sans-serif" font-size="22">Services</text>
  <rect x="76" y="326" width="176" height="56" rx="16" fill="#172947"/>
  <text x="104" y="362" fill="#F2F6FF" font-family="Segoe UI, Arial, sans-serif" font-size="22" font-weight="700">Settings</text>
  <text x="332" y="108" fill="#F7FAFF" font-family="Segoe UI, Arial, sans-serif" font-size="44" font-weight="700">Settings</text>
  <text x="332" y="148" fill="#8EA3CA" font-family="Segoe UI, Arial, sans-serif" font-size="22">Configure Cloudflare API access, runtime defaults, and panel authentication.</text>
  <rect x="332" y="190" width="700" height="700" rx="26" fill="#0F1B34" stroke="#294064" stroke-width="3"/>
  <text x="368" y="238" fill="#F2F6FF" font-family="Segoe UI, Arial, sans-serif" font-size="28" font-weight="700">System Settings</text>
  <text x="368" y="296" fill="#C4D0E8" font-family="Segoe UI, Arial, sans-serif" font-size="20">Cloudflare API Token</text>
  <rect x="368" y="314" width="628" height="56" rx="14" fill="#11213C"/>
  <text x="392" y="350" fill="#7E93B8" font-family="Segoe UI, Arial, sans-serif" font-size="18">********************************</text>
  <text x="368" y="408" fill="#C4D0E8" font-family="Segoe UI, Arial, sans-serif" font-size="20">Cloudflare Account ID</text>
  <rect x="368" y="426" width="628" height="56" rx="14" fill="#11213C"/>
  <text x="392" y="462" fill="#7E93B8" font-family="Segoe UI, Arial, sans-serif" font-size="18">xxxxxxxxxxxxxxxxxxxxxxxxxxxxxxxx</text>
  <text x="368" y="520" fill="#C4D0E8" font-family="Segoe UI, Arial, sans-serif" font-size="20">Panel Password</text>
  <rect x="368" y="538" width="628" height="56" rx="14" fill="#11213C"/>
  <text x="392" y="574" fill="#7E93B8" font-family="Segoe UI, Arial, sans-serif" font-size="18">************</text>
  <text x="368" y="632" fill="#C4D0E8" font-family="Segoe UI, Arial, sans-serif" font-size="20">Tunnel Selection Strategy</text>
  <rect x="368" y="650" width="628" height="56" rx="14" fill="#11213C"/>
  <text x="392" y="686" fill="#7E93B8" font-family="Segoe UI, Arial, sans-serif" font-size="18">least-bindings</text>
  <rect x="368" y="760" width="188" height="54" rx="16" fill="#F38020"/>
  <text x="462" y="796" text-anchor="middle" fill="#07111F" font-family="Segoe UI, Arial, sans-serif" font-size="21" font-weight="700">Save Settings</text>
  <rect x="1068" y="190" width="460" height="332" rx="26" fill="#0F1B34" stroke="#294064" stroke-width="3"/>
  <text x="1104" y="238" fill="#F2F6FF" font-family="Segoe UI, Arial, sans-serif" font-size="28" font-weight="700">Deployment Facts</text>
  <rect x="1104" y="272" width="388" height="58" rx="14" fill="#132542"/>
  <rect x="1104" y="344" width="388" height="58" rx="14" fill="#132542"/>
  <rect x="1104" y="416" width="388" height="58" rx="14" fill="#132542"/>
  <text x="1132" y="308" fill="#F7FAFF" font-family="Segoe UI, Arial, sans-serif" font-size="20" font-weight="700">Mode</text>
  <text x="1348" y="308" text-anchor="end" fill="#C7D3E9" font-family="Segoe UI, Arial, sans-serif" font-size="20">remote-docker-only</text>
  <text x="1132" y="380" fill="#F7FAFF" font-family="Segoe UI, Arial, sans-serif" font-size="20" font-weight="700">Connector Control</text>
  <text x="1456" y="380" text-anchor="end" fill="#C7D3E9" font-family="Segoe UI, Arial, sans-serif" font-size="20">External</text>
  <text x="1132" y="452" fill="#F7FAFF" font-family="Segoe UI, Arial, sans-serif" font-size="20" font-weight="700">Ingress Publish</text>
  <text x="1456" y="452" text-anchor="end" fill="#C7D3E9" font-family="Segoe UI, Arial, sans-serif" font-size="20">Cloudflare API</text>
  <rect x="1068" y="558" width="460" height="332" rx="26" fill="#0F1B34" stroke="#294064" stroke-width="3"/>
  <text x="1104" y="606" fill="#F2F6FF" font-family="Segoe UI, Arial, sans-serif" font-size="28" font-weight="700">Current Effective Settings</text>
  <rect x="1104" y="640" width="388" height="58" rx="14" fill="#132542"/>
  <rect x="1104" y="712" width="388" height="58" rx="14" fill="#132542"/>
  <text x="1132" y="676" fill="#F7FAFF" font-family="Segoe UI, Arial, sans-serif" font-size="20" font-weight="700">HEALTH_TIMEOUT_MS</text>
  <text x="1456" y="676" text-anchor="end" fill="#C7D3E9" font-family="Segoe UI, Arial, sans-serif" font-size="20">3000</text>
  <text x="1132" y="748" fill="#F7FAFF" font-family="Segoe UI, Arial, sans-serif" font-size="20" font-weight="700">PANEL_PASSWORD</text>
  <text x="1456" y="748" text-anchor="end" fill="#C7D3E9" font-family="Segoe UI, Arial, sans-serif" font-size="20">******</text>
</svg>
