<svg width="1600" height="1000" viewBox="0 0 1600 1000" fill="none" xmlns="http://www.w3.org/2000/svg">
  <rect width="1600" height="1000" fill="#06101E"/>
  <rect x="36" y="36" width="1528" height="928" rx="34" fill="#0B1426" stroke="#23324A" stroke-width="4"/>
  <rect x="36" y="36" width="256" height="928" rx="34" fill="#0F1A30"/>
  <text x="92" y="112" fill="#F7FAFF" font-family="Segoe UI, Arial, sans-serif" font-size="38" font-weight="700">CTP</text>
  <text x="92" y="176" fill="#7E93B8" font-family="Segoe UI, Arial, sans-serif" font-size="22">Dashboard</text>
  <rect x="76" y="206" width="176" height="56" rx="16" fill="#172947"/>
  <text x="104" y="242" fill="#F2F6FF" font-family="Segoe UI, Arial, sans-serif" font-size="22" font-weight="700">Bindings</text>
  <text x="92" y="316" fill="#7E93B8" font-family="Segoe UI, Arial, sans-serif" font-size="22">Services</text>
  <text x="92" y="376" fill="#7E93B8" font-family="Segoe UI, Arial, sans-serif" font-size="22">Settings</text>
  <text x="332" y="108" fill="#F7FAFF" font-family="Segoe UI, Arial, sans-serif" font-size="44" font-weight="700">Bindings</text>
  <text x="332" y="148" fill="#8EA3CA" font-family="Segoe UI, Arial, sans-serif" font-size="22">Manage hostname-to-origin routing without owning the connector lifecycle.</text>
  <rect x="332" y="190" width="360" height="274" rx="26" fill="#0F1B34" stroke="#294064" stroke-width="3"/>
  <text x="366" y="238" fill="#F2F6FF" font-family="Segoe UI, Arial, sans-serif" font-size="28" font-weight="700">Create Binding</text>
  <text x="366" y="292" fill="#C4D0E8" font-family="Segoe UI, Arial, sans-serif" font-size="20">Hostname</text>
  <rect x="366" y="308" width="292" height="52" rx="14" fill="#11213C"/>
  <text x="390" y="342" fill="#7E93B8" font-family="Segoe UI, Arial, sans-serif" font-size="18">app.example.com</text>
  <text x="366" y="394" fill="#C4D0E8" font-family="Segoe UI, Arial, sans-serif" font-size="20">Origin</text>
  <rect x="366" y="410" width="292" height="52" rx="14" fill="#11213C"/>
  <text x="390" y="444" fill="#7E93B8" font-family="Segoe UI, Arial, sans-serif" font-size="18">http://127.0.0.1:8080</text>
  <rect x="366" y="492" width="160" height="50" rx="14" fill="#F38020"/>
  <text x="446" y="525" text-anchor="middle" fill="#07111F" font-family="Segoe UI, Arial, sans-serif" font-size="20" font-weight="700">Publish</text>
  <rect x="724" y="190" width="804" height="274" rx="26" fill="#0F1B34" stroke="#294064" stroke-width="3"/>
  <text x="760" y="238" fill="#F2F6FF" font-family="Segoe UI, Arial, sans-serif" font-size="28" font-weight="700">Remote Tunnel Status</text>
  <rect x="760" y="274" width="220" height="146" rx="18" fill="#132542"/>
  <rect x="1016" y="274" width="220" height="146" rx="18" fill="#132542"/>
  <rect x="1272" y="274" width="220" height="146" rx="18" fill="#132542"/>
  <text x="790" y="320" fill="#8EA3CA" font-family="Segoe UI, Arial, sans-serif" font-size="18">Connector Summary</text>
  <text x="790" y="364" fill="#F7FAFF" font-family="Segoe UI, Arial, sans-serif" font-size="26" font-weight="700">2 connectors online</text>
  <text x="1046" y="320" fill="#8EA3CA" font-family="Segoe UI, Arial, sans-serif" font-size="18">Remote Drift</text>
  <text x="1046" y="364" fill="#F7FAFF" font-family="Segoe UI, Arial, sans-serif" font-size="26" font-weight="700">No mismatch detected</text>
  <text x="1302" y="320" fill="#8EA3CA" font-family="Segoe UI, Arial, sans-serif" font-size="18">Lifecycle Control</text>
  <text x="1302" y="364" fill="#F7FAFF" font-family="Segoe UI, Arial, sans-serif" font-size="26" font-weight="700">Externally managed</text>
  <rect x="332" y="500" width="1196" height="390" rx="26" fill="#0F1B34" stroke="#294064" stroke-width="3"/>
  <text x="368" y="548" fill="#F2F6FF" font-family="Segoe UI, Arial, sans-serif" font-size="28" font-weight="700">Binding List</text>
  <rect x="368" y="580" width="1124" height="58" rx="14" fill="#132542"/>
  <text x="392" y="617" fill="#93A4C4" font-family="Segoe UI, Arial, sans-serif" font-size="18" font-weight="700">HOSTNAME</text>
  <text x="680" y="617" fill="#93A4C4" font-family="Segoe UI, Arial, sans-serif" font-size="18" font-weight="700">ORIGIN</text>
  <text x="1040" y="617" fill="#93A4C4" font-family="Segoe UI, Arial, sans-serif" font-size="18" font-weight="700">TUNNEL</text>
  <text x="1260" y="617" fill="#93A4C4" font-family="Segoe UI, Arial, sans-serif" font-size="18" font-weight="700">STATUS</text>
  <rect x="368" y="654" width="1124" height="72" rx="16" fill="#101F38"/>
  <rect x="368" y="742" width="1124" height="72" rx="16" fill="#101F38"/>
  <text x="392" y="700" fill="#F7FAFF" font-family="Segoe UI, Arial, sans-serif" font-size="22" font-weight="700">app.example.com</text>
  <text x="680" y="700" fill="#C7D3E9" font-family="Segoe UI, Arial, sans-serif" font-size="22">http://127.0.0.1:8080</text>
  <text x="1040" y="700" fill="#C7D3E9" font-family="Segoe UI, Arial, sans-serif" font-size="22">primary-tunnel</text>
  <rect x="1250" y="676" width="120" height="32" rx="16" fill="#1D6B49"/>
  <text x="1310" y="698" text-anchor="middle" fill="#E6FFF2" font-family="Segoe UI, Arial, sans-serif" font-size="18" font-weight="700">Healthy</text>
  <text x="392" y="788" fill="#F7FAFF" font-family="Segoe UI, Arial, sans-serif" font-size="22" font-weight="700">nas.example.com</text>
  <text x="680" y="788" fill="#C7D3E9" font-family="Segoe UI, Arial, sans-serif" font-size="22">http://127.0.0.1:5666</text>
  <text x="1040" y="788" fill="#C7D3E9" font-family="Segoe UI, Arial, sans-serif" font-size="22">home-tunnel</text>
  <rect x="1250" y="764" width="120" height="32" rx="16" fill="#725114"/>
  <text x="1310" y="786" text-anchor="middle" fill="#FFF7D9" font-family="Segoe UI, Arial, sans-serif" font-size="18" font-weight="700">Warning</text>
</svg>
